<svg xmlns="http://www.w3.org/2000/svg" viewBox="0 0 127.71 119.99"><defs><style>.cls-1{fill:#9c0d17;}.cls-2{fill:#e5e5e5;}</style></defs><title>dependability_1</title><g id="Layer_2" data-name="Layer 2"><g id="Layer_1-2" data-name="Layer 1"><polygon class="cls-1" points="64.88 0 67.76 5.83 74.19 6.76 69.54 11.3 70.64 17.71 64.88 14.68 59.13 17.71 60.23 11.3 55.57 6.76 62.01 5.83 64.88 0"/><path class="cls-1" d="M24.6,76.67l28-28,.16.16L65.17,61.26a6.7,6.7,0,1,0,9.48-9.48L51.13,28.06a7.6,7.6,0,0,0-10.75,0l-27,27a7.6,7.6,0,0,0,0,10.75l8.4,8.4,2.62,2.62.18-.18Z"/><path class="cls-1" d="M52.63,118.19l.11.11a5.78,5.78,0,0,0,8.17,0L62.17,117l-7.89-7.89-.37-.4L52.63,110A5.78,5.78,0,0,0,52.63,118.19Z"/><path class="cls-1" d="M75.16,80.07a5.77,5.77,0,0,0,0,8.17L85.61,98.7a5.78,5.78,0,0,0,8.18-8.17L83.34,80.07a5.77,5.77,0,0,0-8.18,0Z"/><path class="cls-1" d="M85.06,70.17l-.09.11a5.78,5.78,0,0,0,0,8.18l9.5,9.44,1,1a5.79,5.79,0,0,0,8.17,0l.09-.09a5.79,5.79,0,0,0,0-8.18L93.24,70.17h0l0,0a5.8,5.8,0,0,0-8.12.05Z"/><path class="cls-1" d="M69.45,88.17A5.77,5.77,0,0,0,63.67,94,6,6,0,0,0,64,95.86a3.94,3.94,0,0,0,.28.66,3.69,3.69,0,0,0,.22.41,5.24,5.24,0,0,0,.39.56,4.88,4.88,0,0,0,.48.56l10.46,10.44a5.78,5.78,0,0,0,8.18,0,5.8,5.8,0,0,0,0-8.18L73.55,89.87a4.79,4.79,0,0,0-.56-.48A5.74,5.74,0,0,0,69.45,88.17Z"/><path class="cls-1" d="M62.64,98.79c-.13-.08-.28-.15-.41-.22a5.07,5.07,0,0,0-.66-.27A5.58,5.58,0,0,0,59.65,98a5.79,5.79,0,0,0-5.45,7.69,3.94,3.94,0,0,0,.28.66,3.69,3.69,0,0,0,.22.41,5.3,5.3,0,0,0,.38.56l.05.06a5.37,5.37,0,0,0,.44.49L66,118.29a5.78,5.78,0,0,0,8.18-8.18L63.74,99.66a6.06,6.06,0,0,0-.54-.48C63,99,62.81,98.91,62.64,98.79Z"/><path class="cls-1" d="M64.72,39.05l0,0-.07.07.09.09,0,0L76.13,50.68A8.54,8.54,0,0,1,69,65.19a8.87,8.87,0,0,1-5.12-2.58L52.59,51.28,25.65,78.21l-2.41,2.41a5.78,5.78,0,0,0,4.61,9.84,6.1,6.1,0,0,0,3.72-1.83L51.82,68.39,53.44,70,33,90.42a5.78,5.78,0,0,0,4.61,9.84,6.1,6.1,0,0,0,3.72-1.83L61.61,78.2l1.62,1.62-20.4,20.4a5.78,5.78,0,0,0,4.08,9.87A5.77,5.77,0,0,0,51,108.4l1.65-1.65a7,7,0,0,1-.51-1.76,7.13,7.13,0,0,1-.1-1.23,7.61,7.61,0,0,1,10.27-7.14,7.73,7.73,0,0,1-.37-4,7.1,7.1,0,0,1,1-2.6,7.66,7.66,0,0,1,9.18-3.18,7.78,7.78,0,0,1-.38-3.88,7,7,0,0,1,.94-2.64A7.65,7.65,0,0,1,81.92,77a7.66,7.66,0,0,1,1.74-8l0,0a7.53,7.53,0,0,1,4.06-2.16,7.82,7.82,0,0,1,2.63,0,7.65,7.65,0,0,1,3.3,1.4l8.68,8.68.07-.07,0,0,11-11a7.6,7.6,0,0,0,0-10.75l-27-27a7.6,7.6,0,0,0-10.75,0Z"/><rect class="cls-2" x="92.41" y="22.8" width="33.29" height="19.5" transform="translate(54.96 -67.58) rotate(45)"/><rect class="cls-2" x="2.02" y="22" width="33.29" height="19.5" transform="translate(54.31 41) rotate(135)"/><circle class="cls-1" cx="25.4" cy="25.01" r="2.12" transform="translate(-10.25 25.29) rotate(-45)"/><circle class="cls-1" cx="101.52" cy="25.01" r="2.12" transform="translate(12.05 79.11) rotate(-45)"/></g></g></svg>