<svg xmlns="http://www.w3.org/2000/svg" viewBox="0 0 192 37.36"><defs><style>.cls-1{fill:#737373;}.cls-2{fill:#9c0d17;}</style></defs><title>colored relyable</title><g id="Layer_2" data-name="Layer 2"><g id="Layer_1-2" data-name="Layer 1"><path class="cls-1" d="M179.47,27.32H192V25.56H181.41v-6h9.36V17.78h-9.36V11.92h10.47V10.16h-12.4Zm-16.4,0h11.6V25.53H165V10.16h-1.94Zm-17-1.74V19.52h5.42c3,0,4.56,1.08,4.56,2.94v0c0,1.91-1.62,3.06-4.22,3.06Zm0-7.77V11.9h5.22c2.45,0,3.8,1.1,3.8,2.8v0c0,2-1.62,3.06-3.95,3.06Zm-1.91,9.51h7.62c3.75,0,6.23-1.74,6.23-4.68v0c0-2.35-1.64-3.53-3.68-4.14a4.14,4.14,0,0,0,2.72-4v0a3.81,3.81,0,0,0-1.1-2.75,6.3,6.3,0,0,0-4.49-1.52h-7.31ZM126.86,21l3.92-8.75,3.9,8.75Zm-4.78,6.28h2l2-4.53h9.34l2,4.53h2.08L131.72,10H129.9Z"/><path class="cls-2" d="M109.24,27.32H113V20.48l6.6-10.32h-4.29L111.15,17l-4.09-6.89h-4.41l6.6,10.39Zm-18,0h12.33V23.89H95V10.16H91.19Zm-17.65,0H86.61V24H77.29v-3.6h8.09V17H77.29V13.52h9.19V10.16H73.54ZM58.37,18.49V13.57h3.75c1.84,0,3,.83,3,2.45v0c0,1.45-1.06,2.43-2.89,2.43Zm-3.77,8.83h3.77V21.83h3L65,27.32h4.41l-4.19-6.13a5.33,5.33,0,0,0,3.68-5.32v0a5.39,5.39,0,0,0-1.47-3.92,6.84,6.84,0,0,0-5-1.74H54.59Z"/><path class="cls-2" d="M29.56,32.57H7.84v0a17.78,17.78,0,0,1-4-4.38H33.52a17.8,17.8,0,0,1-4,4.34m-20.32,1H28.12a17.62,17.62,0,0,1-18.88,0m-6-6.35A17.55,17.55,0,0,1,1,19.16H8.54v2.55h7.54v3.19h5V8.11h5V24.93h1V22.4l2-.91,1.74.89v2.55h1V22.4l2-.91,2,1a17.53,17.53,0,0,1-1.78,4.7H3.24ZM18.68,1A17.66,17.66,0,0,1,36.11,21.47l-2.17-1.12L31.4,21.5l-2.24-1.15-2,.92V7.09H20v16.8H17.1V20.69H14.56V17h-1v3.72H12.39V17h-1v3.72H9.56V18.14H1A17.68,17.68,0,0,1,18.68,1m0-1A18.68,18.68,0,1,0,37.36,18.68,18.68,18.68,0,0,0,18.68,0"/><rect class="cls-2" x="1.78" y="20.27" width="1.02" height="1.45"/><rect class="cls-2" x="4.09" y="20.27" width="1.02" height="1.45"/><rect class="cls-2" x="6.39" y="20.27" width="1.02" height="1.45"/><rect class="cls-2" x="28.64" y="23.61" width="1.02" height="1.32"/><rect class="cls-2" x="33.39" y="23.61" width="1.02" height="1.32"/><rect class="cls-2" x="22.08" y="9.07" width="1.02" height="15.86"/><rect class="cls-2" x="24.11" y="9.07" width="1.02" height="15.86"/><rect class="cls-2" x="8.14" y="29.76" width="4.22" height="1.02"/><rect class="cls-2" x="16.59" y="29.76" width="4.22" height="1.02"/><rect class="cls-2" x="25" y="29.76" width="4.22" height="1.02"/></g></g></svg>