<svg xmlns="http://www.w3.org/2000/svg" viewBox="0 0 809.66 224.41"><defs><style>.cls-1{fill:#fff;}</style></defs><title>roachkill w</title><g id="Layer_2" data-name="Layer 2"><g id="Layer_1-2" data-name="Layer 1"><path class="cls-1" d="M429.39,59.79l-7.53-.44a150.5,150.5,0,0,1-22.73-3c2,.24,4,.49,6,.71a186.87,186.87,0,0,0,28.65.9,158.34,158.34,0,0,0,24.92-2.92c8.72-1.76,17.24-4.17,25.14-8.38a33.82,33.82,0,0,0,8.54-6.15,21.1,21.1,0,0,0,2.2-2.65,11.56,11.56,0,0,0,.14-13.81,27.06,27.06,0,0,0-8.73-7.9c-6.89-4.25-14.45-6.86-22.23-8.84C447.65,3.24,431.24,2,414.67,2.67a151,151,0,0,0-33.85,4.86,86.39,86.39,0,0,0-18.11,6.94c.31-.23.62-.47.95-.68a66.13,66.13,0,0,1,19-8.42A136.58,136.58,0,0,1,409.17.66,180,180,0,0,1,437.83.49c14.25,1,28.22,3.45,41.62,8.62a58.34,58.34,0,0,1,16.77,9.36,23.37,23.37,0,0,1,5.56,6.4,12.75,12.75,0,0,1-.39,14.06,27.24,27.24,0,0,1-9.3,8.36c-7,4.22-14.74,6.72-22.67,8.58a150.74,150.74,0,0,1-29.89,3.74c-.71,0-1.43.12-2.14.19Z"/><path class="cls-1" d="M316.14,11c2.52,0,5,0,7.41,0,5.75.06,11.5.06,17.25.26a11.35,11.35,0,0,1,4.53,1.18c3.7,1.84,4.14,6.32,1,9a14.59,14.59,0,0,1-6.09,2.86l-1.62.4a15,15,0,0,1,1.44.48,25.41,25.41,0,0,1,4,2,5.69,5.69,0,0,1,1.84,7.3,9.82,9.82,0,0,1-3.48,4,17.13,17.13,0,0,1-9.78,3.24c-8.16.09-16.32.06-24.48.08a2.84,2.84,0,0,1-.42-.06,12.92,12.92,0,0,1,13.48-12.24l-1.69,6.62c2.48,0,4.88.09,7.26,0a33.09,33.09,0,0,0,4.88-.77,5.58,5.58,0,0,0,1.85-.84,3.06,3.06,0,0,0-.22-5.5,13.2,13.2,0,0,0-6.28-1.23c-4.74,0-9.49,0-14.24,0h-1.37Zm7.29,11.62c3.53,0,6.92.24,10.2-.74a9.88,9.88,0,0,0,2.92-1.51,2.36,2.36,0,0,0,.77-2.63A2.38,2.38,0,0,0,335.37,16a6,6,0,0,0-1.38-.21q-4,0-8,0a.9.9,0,0,0-.71.41C324.66,18.29,324.07,20.42,323.43,22.66Z"/><path class="cls-1" d="M364.64,42.45a23.54,23.54,0,0,1-8.46-1.16c-8.65-3.1-7.55-11.07-3.61-15.25a18,18,0,0,1,10.09-5.15,23.8,23.8,0,0,1,13.26.77c4.24,1.62,6.36,4.55,6.2,8.46A10.24,10.24,0,0,1,379,37c-2.95,3-6.71,4.33-10.74,5C367,42.27,365.66,42.34,364.64,42.45Zm-.2-4.77a8.25,8.25,0,0,0,8.14-6.89A4.39,4.39,0,0,0,369,25.42,8.14,8.14,0,0,0,359,32.61a4.07,4.07,0,0,0,2.78,4.47A21.27,21.27,0,0,0,364.44,37.68Z"/><path class="cls-1" d="M382.56,40.64c.66-1.36,1.29-2.56,1.84-3.8.27-.62.61-.57,1.18-.46,2.7.51,5.41,1,8.14,1.38a4.79,4.79,0,0,0,2.4-.46A2,2,0,0,0,397.19,36a1.76,1.76,0,0,0-.83-1.34,26.25,26.25,0,0,0-2.86-1.22,37,37,0,0,1-4.89-2.19c-2.93-1.81-3.17-4.92-.71-7.36A11.8,11.8,0,0,1,394,21a29,29,0,0,1,12.92.2c.21.05.42.11.62.18s.26.11.53.23c-.67,1.37-1.3,2.72-2,4-.1.18-.6.21-.9.18-2.21-.23-4.4-.55-6.61-.72a5,5,0,0,0-2.18.47c-1.23.52-1.32,1.58-.17,2.25A19.43,19.43,0,0,0,399,29c1.53.6,3.14,1,4.61,1.78,4.82,2.39,3.53,6.89.56,8.95a16.11,16.11,0,0,1-7.36,2.52,31.73,31.73,0,0,1-12.28-.84C383.88,41.2,383.29,40.92,382.56,40.64Z"/><path class="cls-1" d="M425.91,36.92c-.31,1.55-.56,3-.89,4.36a1.16,1.16,0,0,1-.7.76,21.14,21.14,0,0,1-8.67,0c-3.35-.83-4.58-2.75-3.81-6.16.67-3,1.53-5.9,2.31-8.85.09-.34.16-.68.28-1.16h-3.84c.42-1.59.77-3.05,1.2-4.48.07-.23.52-.45.81-.48a17.43,17.43,0,0,1,2.37,0c.6,0,1-.15,1-.78.16-2.72,1.65-3.82,4.3-4A43.46,43.46,0,0,0,426,15.07l-1.42,5.77h6.52c-.44,1.62-.81,3.07-1.26,4.49a1.11,1.11,0,0,1-.87.5c-1.65,0-3.31,0-5,0-.59,0-.91.14-1.07.75-.59,2.26-1.24,4.5-1.85,6.75a7.35,7.35,0,0,0-.21,1.27c-.13,1.51.45,2.21,2,2.31C423.86,37,424.83,36.92,425.91,36.92Z"/><path class="cls-1" d="M444.71,41.9c.74-2.77,1.45-5.44,2.15-8.1,1-3.92,2.08-7.84,3.08-11.77.19-.73.47-1.06,1.3-1,2.3.07,4.6,0,6.9,0,.31,0,.62,0,1.05.06l-2.3,8.7,1-.78q4.82-3.82,9.64-7.63a1.94,1.94,0,0,1,1-.49c3.52,0,7,0,10.67.2-.33.21-.64.43-1,.63-7.32,4.35-14.64,8.7-21.93,13.08a2.8,2.8,0,0,0-1.1,1.43c-.52,1.6-.88,3.26-1.36,4.87-.09.3-.44.74-.68.75C450.42,41.92,447.62,41.9,444.71,41.9Z"/><path class="cls-1" d="M444.13,20.92l-5.55,20.92h-9c.24-1,.45-1.88.7-2.79,1.5-5.68,3-11.36,4.5-17.06a1.29,1.29,0,0,1,1.54-1.15c2.15.06,4.31,0,6.47,0C443.2,20.86,443.59,20.89,444.13,20.92Z"/><path class="cls-1" d="M466.66,30l8.92,11.88h-2.46c-2.16,0-4.32-.09-6.46,0a2.35,2.35,0,0,1-2.21-1.26C461.76,37.15,463.07,32.57,466.66,30Z"/><path class="cls-1" d="M441.56,11a18.48,18.48,0,0,1,3.26,1,2.78,2.78,0,0,1,.51,4.75,7.41,7.41,0,0,1-7.73.58,2.8,2.8,0,0,1-.38-4.66A7.68,7.68,0,0,1,441.56,11Z"/><path class="cls-1" d="M79.33,159.59c21.58-14.08,18.61-52.22.88-67.57C70.91,84,59.82,80.78,48,80.31c-10.27-.41-48-.48-48-.48V224.41H37V164h2c6.41,17.51,15,42.9,21.55,60.37l39.45,0c-.75-1.95-20.75-44.22-28.23-59.83Zm-37-14a15.88,15.88,0,0,1-1.66,0H37V108.54h3.68v0c9.63-.64,16.27,5.55,16.92,15.51C58.32,135.94,51.9,144.89,42.29,145.62Z"/><path class="cls-1" d="M464.4,117.46l-18.85.07s.2-28.32,0-37.64H413.38v103c9.65,0,32.38-.08,32.38-.08-.19-11,0-31.65-.11-42.64h18.9c-.16,6.16,0,35.76,0,42.45H497V80.21H464.4Z"/><path class="cls-1" d="M172.59,81.61c-20.78-5.47-42.22,1.55-53.52,17.69-8.82,12.6-10.42,26.75-8.44,41.57C114,166.56,133,183,158.89,182.81c21.71-.17,37.79-11.91,44.5-32.7,3-9.34,3.24-18.86,2-28.62C203,101.86,190.49,86.33,172.59,81.61Zm-3.31,68.54c-1.64,6.32-6.1,9.64-11.23,9.69s-9-2.79-11.09-9.11c-4.16-12.84-4.34-25.86.19-38.63,2.38-6.71,6.87-9.66,12.13-9.25s8.93,4,10.75,10.88C170.77,116.59,174.21,130.21,169.28,150.15Z"/><path class="cls-1" d="M580.8,132.79a8.22,8.22,0,0,1,0-6.68c4.85-9.49,10.15-18.74,15.26-28.09,3.14-5.76,6.22-11.56,9.78-18.18-10.51,0-33.84-.09-33.84-.09l-20.12,44.16h-1.66v-44H526.35c-1.36,0-2.71,0-4.06-.09a9.91,9.91,0,0,0-1.8.09h-3V182.6h32.65V135.14H552c6.42,13.35,16.2,34.64,22.73,47.93l34.5-.18c-1.48-2.71-2.55-4.73-3.68-6.71C597.26,161.74,588.86,147.36,580.8,132.79Z"/><path class="cls-1" d="M243.38,79.75s-27.7,93.64-30.51,103.3l33.48,0,2.86-13.69,25.23.12c.34,1.49,3.27,13.31,3.27,13.31,10.27.29,22.17.14,33,.14-.46-2.22-26.49-103.16-26.49-103.16ZM254,149.36,262.47,104l1.36,0,6.8,45.36Z"/><path class="cls-1" d="M809.65,191.45h-26.1c.21-33.14-.17-109.18-.17-111.13H751v144h58.61V211.61C809.68,205.11,809.65,198.48,809.65,191.45Z"/><path class="cls-1" d="M354.71,139.64a54.38,54.38,0,0,1,.26-16.87c3.05-17.3,17.94-24.64,33.92-17.19,1.14.53,2.29,1,4.15,1.86,0-5.63,0-21,0-26,0,0,0-.23-10.26-1.24-31.23-3.07-58.37,13-61.85,44.07-1.88,16.78,1,32.5,14,44.47,15.77,14.53,34.54,16.77,54.62,11.38l2.72-.62c.74-6.91,1.17-17.07,1.69-24.65-3.1,1.36-5.45,2.6-7.93,3.46C370.39,163.74,357,156,354.71,139.64Z"/><path class="cls-1" d="M734.35,159.73h-26.2V80.08H675.81V182.89c18.45,0,58.54-.1,58.54-.1S734.35,164.9,734.35,159.73Z"/><path class="cls-1" d="M622.81,182.6h32.24V80.22H622.81Z"/></g></g></svg>